<svg xmlns="http://www.w3.org/2000/svg" width="910" height="208"><path fill="#FFF" d="M728 79c8.988 8.382 13.67 17.594 14.152 29.871.051 3.716.052 7.417-.152 11.129-1.792 1.792-4.475 1.172-6.897 1.205l-3.822.06q-2.08.027-4.16.051l-4.233.063q-5.58.082-11.161.153-5.691.077-11.381.161-11.173.162-22.346.307.676 2.149 1.367 4.293l.77 2.415c1.93 5.125 5.162 8.195 9.926 10.667 6.206 2.462 12.833 2.787 19.269.965 3.945-1.742 5.797-3.448 8.043-7.09 1.67-2.225 2.874-3.133 5.64-3.564 5.342-.306 10.652-.038 15.985.314-1.034 8.365-5.621 14.532-12.148 19.723-10.677 7.365-22.245 8.403-34.852 7.277-11.66-2.253-20.014-8.578-27-18-7.098-11.366-7.791-25.658-5.312-38.586 3.06-9.922 8.605-18.58 17.312-24.414 16.783-8.524 35.641-8.717 51 3m-43.937 12.25C680.033 95.746 678 99.85 678 106h45c-.986-7.891-1.634-10.728-7-16-9.476-7.041-23.224-6.878-31.937 1.25m-267.188-37.5C423.313 58.485 428.295 64.003 430 72v6h-19l-4-8c-5.57-5.299-10.422-5.289-17.824-5.215-4.988.338-7.77 1.621-11.051 5.34C376.578 74.078 376.268 77.81 377 82c3.001 6.331 7.676 7.708 14 10 3.34 1.046 6.7 2.025 10.063 3 10.869 3.163 21.955 6.397 27.996 16.828 3.744 8.24 3.755 16.168.976 24.684-3.417 8.213-9.734 13.94-17.652 17.746-12.587 4.878-26.066 4.056-38.383-1.258-8.2-4.062-12.784-9.863-16.375-18.187C357 132 357 132 357 126h19l1.688 4.25c2.34 5.233 4.855 7.658 10.125 10 6.998 1.647 12.84 1.086 19.187-2.25 3.047-2.578 4.82-4.397 5.273-8.426.269-6.097.269-6.097-2.21-11.512-8.016-5.397-17.223-7.723-26.448-10.242-9.754-2.814-18.16-6.536-23.498-15.523-3.982-8.186-3.958-16.263-1.144-24.809 3.374-8.172 9.07-12.88 17.027-16.488 13.274-4.754 28.638-4.916 40.875 2.75M593 80c9.066 8.072 13.223 19.38 14.184 31.273.366 12.29-3.702 23.524-11.434 33.102-8.158 8.624-18.604 12.592-30.262 13.027-12.012.18-22.475-1.954-31.488-10.402-9.942-9.84-13.846-21.051-14-35 1.054-13.239 5.237-22.912 15-32 17.163-13.818 40.542-13.27 58 0m-45.687 11.188c-7.908 9.616-9.164 17.497-8.313 29.812 1.37 7.114 4.02 12.185 9.805 16.625 6.26 3.921 12.088 5.049 19.422 4.063 7.343-1.82 12.354-5.395 16.336-11.813 4.503-8.191 4.652-17.725 2.859-26.8-2.63-7.689-8.177-12.86-15.297-16.575-9.106-1.457-17.452-1.303-24.812 4.688M820 71h19c3.153 6.886 5.893 13.86 8.512 20.965l1.253 3.377q1.964 5.296 3.923 10.596l3.954 10.67q1.227 3.31 2.45 6.62l1.114 3.006.98 2.65c.779 2.126.779 2.126 1.814 4.116l.732-1.914q3.793-9.906 7.593-19.808 1.415-3.69 2.828-7.382 2.038-5.322 4.081-10.642l1.263-3.306c1.824-4.74 3.673-9.469 5.656-14.146.3-.712.602-1.424.913-2.158C887 72 887 72 889.324 70.91c3.179.107 6.32.24 9.489.528l3.519.308L905 72c-2.206 8.784-5.82 16.936-9.406 25.22-1.911 4.419-3.803 8.845-5.696 13.272l-1.205 2.818c-4.617 10.816-9.093 21.69-13.568 32.565l-4.766 11.566-1.14 2.769q-4.875 11.82-9.844 23.602l-1.343 3.197-1.196 2.823-1.014 2.398C855 194 855 194 854 195c-1.343.086-2.69.107-4.035.098l-2.451-.01-2.577-.025-2.587-.014q-3.175-.02-6.35-.049c1.69-5.469 3.676-10.688 5.953-15.941l.806-1.869a713 713 0 0 1 3.354-7.69c.84-1.89 1.654-3.79 2.465-5.691l1.482-3.382c1.864-6.795-.308-12.856-2.927-19.172l-.888-2.206c-.96-2.38-1.932-4.756-2.905-7.131l-2.014-4.989a4504 4504 0 0 0-5.302-13.07 8088 8088 0 0 1-8.497-20.972q-1.484-3.661-2.979-7.317l-1.81-4.472-.845-2.054C820.744 76.191 820 74.109 820 71m-315.328 6.059C510.234 81.696 514.76 88.09 517 95v4c-3.066.217-6.117.375-9.187.5l-2.62.203c-2.618.08-4.679.048-7.193-.703-2.29-2.406-3.566-5.034-5-8-3.834-3.967-9.118-4.913-14.46-5.074-6.218.335-10.798 2.001-15.54 6.074-7.256 8.784-6.983 20.185-6 31 1.327 6.478 3.97 10.732 9.121 14.844 6.068 3.734 11.923 3.86 18.879 3.156 3.167-.82 5.465-1.937 8-4a71 71 0 0 0 2.11-4.125c1.52-2.537 2.201-3.67 5.07-4.525 2.585-.138 5.051-.05 7.632.15l2.678.11c2.172.093 4.342.237 6.51.39-.872 7.508-4.564 13.606-9.926 18.902C495.568 156.965 483.148 158.11 469 157c-9.993-2-17.91-7.888-24.395-15.59-7.234-10.86-8.988-24.068-7.109-36.762 2.237-10.79 6.746-20.51 15.688-27.308 15.444-10.057 35.916-10.303 51.488-.281M817 38v15l-6.738 1.27c-2.662.86-3.664 1.43-5.262 3.73-.797 3.185-.797 3.185-1.187 6.688l-.481 3.574L803 71l3.246-.035 4.192-.028 2.142-.025c1.807-.009 3.614.036 5.42.088 1 1 1 1 1.098 4.16L819 86h-16v70h-18V86h-10q-.04-3.468-.062-6.937l-.036-3.903C775 72 775 72 776 71a75 75 0 0 1 4.563-.062l2.503.027L785 71l-.14-2.238c-.301-8.457.46-16.026 5.8-22.899 7.298-7.148 16.511-8.346 26.34-7.863M301 7c6.03 4.564 9.64 10.353 11.75 17.563.983 9.581-.954 17.116-7.016 24.648-5.525 5.7-12.256 8.374-20.109 9.102-8.67-.748-15.819-4.14-21.812-10.5-4.816-5.941-6.446-12.697-6.153-20.27 1.035-7.743 4.334-13.603 10.078-18.848C277.8 1.153 290.18.74 301 7m358 63q.04 4.469.063 8.938l.025 2.576.01 2.45.016 2.27C659 88 659 88 658 89c-1.685.133-3.374.231-5.062.313-5.409.477-9.591 1.347-13.938 4.687-4.725 6.106-4.587 12.935-4.574 20.34l-.043 3.523a1434 1434 0 0 0-.07 11.075q-.045 5.574-.103 11.149-.034 3.462-.047 6.924l-.021 3.137-.01 2.773C634 155 634 155 633 156h-17V71h17c2.047 2.047 1.7 6.304 2 9l1.32-1.207c7.163-6.372 13.093-8.859 22.68-8.793m-413.785-5.52c5.677 4.833 9.196 9.42 10.07 16.989.396 7.23-1.13 12.586-5.285 18.531-4.342 4.777-8.74 7.665-15.27 8.336-8.286.091-14.173-.217-20.437-5.879-5.02-5.338-7.36-11.04-7.793-18.332.258-7.296 3.466-13.574 8.75-18.562 8.985-6.817 20.603-7.753 29.965-1.083M751 71h17c1.766 1.766 1.12 4.104 1.124 6.455l-.01 2.37v2.483c0 2.721-.009 5.443-.016 8.165l-.005 5.645q-.006 7.445-.024 14.89-.014 7.59-.02 15.181-.017 14.906-.049 29.811h-18zm-619.871-6.348c5.56 2.899 9.669 7.726 12.246 13.348 1.35 6.478 1.021 12.265-2.375 18-5.197 5.737-10.029 8.984-17.812 9.375-6.79-.162-11.141-2.42-16-7.062-3.375-5.11-5.62-10.21-5.126-16.438C103.833 74.56 106.962 70.404 113 66c5.268-3.215 12.314-3.13 18.129-1.348m57.051 56.02c4.376 3.193 7.14 6.73 9.257 11.703 1.184 7.626.036 13.339-4.437 19.625-4.688 4.855-9.118 7.058-15.812 7.375-6.082-.154-10.458-1.87-14.946-5.988-4.162-4.534-5.982-8.58-6.554-14.762.574-6.665 2.17-10.937 7.187-15.5 7.636-6.073 16.565-7.478 25.305-2.453M79.875 125.75c3.627 3.84 5.29 7.369 5.625 12.625-.183 5.16-2.187 8.746-5.5 12.625-3.74 3.051-7.212 3.752-12 4-5.557-.958-8.434-2.642-12-7-2.822-4.477-3.636-7.73-3-13 1.919-5.777 4.462-9.174 10-12 5.653-2.139 11.891-.284 16.875 2.75m-57.562 55.813c3.282 2.976 4.462 5.185 5.687 9.437-.092 5.308-1.247 8.247-5 12-3.044 2.283-6.209 2.428-9.973 2.309-3.5-.533-5.436-1.96-8.027-4.309-2.229-3.81-3.014-6.207-2.937-10.625 1.222-4.4 3.044-6.955 6.687-9.687 5.057-1.546 8.878-1.335 13.563.875M765 39c3.852 3.196 5.832 5.249 6.313 10.25-.37 4.43-1.481 6.368-4.313 9.75-3.416 2.591-6.833 2.503-11 2-4.113-2.716-6.923-5.095-8-10 .203-4.88 1.614-7.517 5-11 3.608-2.835 7.804-2.315 12-1"/><path fill="#FFF" d="m454 77 2 1-11 11c0-3.524.551-4.015 2.813-6.562l1.582-1.817C451 79 451 79 454 77M61 124l2 1-7 7-1-2z"/></svg>