<?xml version="1.0" encoding="UTF-8"?>
<svg xmlns="http://www.w3.org/2000/svg" xmlns:xlink="http://www.w3.org/1999/xlink" id="Layer_1" version="1.1" viewBox="0 0 1476 116.5">
  <defs>
    <style>
      .st0 {
        fill: none;
      }

      .st1 {
        fill: #d2dcea;
      }

      .st2 {
        fill: #fff;
      }

      .st3 {
        fill: #005128;
      }

      .st4 {
        clip-path: url(#clippath);
      }

      .st5 {
        fill: #00b67a;
      }
    </style>
    <clipPath id="clippath">
      <rect class="st0" x="1090.7" y="14" width="84" height="79.3"></rect>
    </clipPath>
  </defs>
  <g id="_x39_fd4979a29">
    <path class="st5" d="M102.6,22.6H33.8v68.6h68.8V22.6Z"></path>
    <path class="st5" d="M176.6,22.6h-68.8v68.6h68.8V22.6Z"></path>
    <path class="st5" d="M251,22.6h-68.8v68.6h68.8V22.6Z"></path>
    <path class="st5" d="M324.9,22.6h-68.8v68.6h68.8V22.6Z"></path>
    <path class="st1" d="M399.3,22.6h-68.8v68.6h68.8V22.6Z"></path>
    <path class="st5" d="M330.5,22.6h34.4v67.7h-34.4V22.6Z"></path>
    <path class="st2" d="M67.8,68.4l10.8-3,4.3,13.7-15-10.7ZM91.9,51.3h-18.5l-5.6-17.1-5.6,17.1h-18.1l15,10.7-5.6,17.1,15-10.7,9.5-6.4,14.2-10.7h-.4Z"></path>
    <path class="st2" d="M142.2,68.4l10.7-3,4.3,13.7-15-10.7ZM165.8,51.3h-18.5l-5.6-17.1-5.6,17.1h-18.5l15.1,10.7-5.6,17.1,15.1-10.7,9.5-6.4,15-10.7h-.9Z"></path>
    <path class="st2" d="M216.6,68.4l10.8-3,4.3,13.7-15-10.7ZM240.2,51.3h-18.5l-5.6-17.1-5.6,17.1h-18.5l15,10.7-5.2,17.1,15-10.7,9.5-6.4,14.2-10.7h-.4Z"></path>
    <path class="st2" d="M290.5,68.4l10.8-3,4.3,13.7-15.1-10.7ZM315,51.3h-18.5l-5.6-17.1-5.6,17.1h-18.5l15,10.7-5.6,17.1,15.1-10.7,9.5-6.4,15-10.7h-.9Z"></path>
    <path class="st2" d="M364.9,68.4l10.8-3,4.3,13.7-15-10.7ZM388.5,51.3h-18.5l-5.6-17.1-5.2,17.1h-18.5l15.1,10.7-5.6,17.1,15-10.7,9.5-6.4,14.2-10.7h-.4Z"></path>
    <path class="st2" d="M433.3,80.4v-48h18.1c3.9,0,7.7.9,10.3,2.1,3,1.3,5.2,3,6.9,5.6,1.7,2.6,2.6,5.6,2.6,9s-.9,6.4-2.6,8.6c-1.7,2.6-3.9,4.3-6.9,5.6s-6.4,1.7-10.3,1.7h-15l2.2-2.1v17.6h-5.2ZM465.9,80.4l-12.5-17.6h5.6l12.5,17.6h-5.6ZM438.4,63.3l-2.2-2.6h15c4.7,0,8.6-.9,10.8-3,2.6-2.1,3.9-5.1,3.9-9s-1.3-6.9-3.9-9c-2.6-2.1-6-3-10.8-3h-15l2.2-2.6v29.1ZM502.9,80.4v-22.7c0-3-.9-5.6-2.6-6.9-1.7-1.7-4.3-2.6-7.7-2.6s-4.7,0-6.9,1.3c-2.2.9-3.9,1.7-5.2,3l-2.1-3.4c1.7-1.7,3.9-2.6,6.4-3.4,2.6-.9,5.2-1.3,8.2-1.3,4.7,0,8.2,1.3,10.8,3.4,2.6,2.1,3.9,5.6,3.9,10.3v22.3h-4.7ZM490.4,80.9c-2.6,0-5.2-.4-6.9-1.3-2.2-.9-3.4-2.1-4.7-3.9-.9-1.7-1.7-3.4-1.7-5.6s.4-3.4,1.3-5.1,2.6-3,4.3-3.9c2.2-.9,4.7-1.3,8.2-1.3h12.5v3.4h-12.5c-3.4,0-6,.4-7.3,1.7-1.3,1.3-2.2,2.6-2.2,4.7s.9,3.9,2.6,5.1c1.7,1.3,3.9,1.7,6.9,1.7s5.2-.4,6.9-1.7c2.2-1.3,3.4-3,4.3-5.6l1.3,3.4c-.9,2.6-2.6,4.3-4.7,5.6-2.1,1.3-5.2,2.1-8.6,2.1l.4.4ZM530.8,80.9c-3.4,0-6-.9-7.7-2.6-1.7-1.7-2.6-4.3-2.6-7.7v-33.9h4.7v33.4c0,2.1.4,3.9,1.7,4.7,1.3,1.3,2.6,1.7,4.7,1.7s3.9-.4,5.2-1.7l1.7,3.4c-.9.9-2.1,1.7-3.4,1.7s-2.6.4-4.3.4v.4ZM513.7,48.7v-3.9h22.4v3.9h-22.4ZM560.1,80.9c-3.9,0-6.9-.9-9.9-2.1-3-1.7-5.2-3.9-6.9-6.4-1.7-3-2.6-6-2.6-9.4s.9-6.9,2.2-9.4c1.7-2.6,3.9-4.7,6.4-6.4s5.6-2.6,9-2.6,6.5.9,9,2.1c2.6,1.7,4.7,3.9,6.4,6.4s2.2,6,2.2,9.4,0,.4,0,.9v.9h-31.4v-3.4h28.8l-1.7,1.3c0-2.6-.4-4.7-1.7-6.9-1.3-2.1-2.6-3.9-4.7-4.7-1.7-1.3-4.3-1.7-6.9-1.7s-4.7.4-6.9,1.7c-2.2,1.3-3.4,2.6-4.7,4.7-1.3,2.1-1.7,4.3-1.7,6.9v.9c0,2.6.4,5.1,1.7,7.3,1.3,2.1,3,3.9,5.2,4.7,2.2,1.3,4.7,1.7,7.3,1.7s4.3,0,6-1.3c1.7-.9,3.4-2.1,5.2-3.4l2.6,3c-1.7,1.7-3.4,3.4-6,4.3-2.6.9-5.2,1.7-7.7,1.7h.9ZM599.2,80.9c-3.4,0-6.4-.9-9.5-2.1-2.6-1.7-4.7-3.9-6.4-6.4-1.7-3-2.2-6-2.2-9.4s.9-6.9,2.2-9.4c1.7-2.6,3.9-4.7,6.4-6.4,2.6-1.7,6-2.1,9.5-2.1s6,.9,8.6,2.1c2.6,1.3,4.3,3.4,6,6.4,1.7,2.6,2.2,6,2.2,9.9s-.9,7.3-2.2,9.9c-1.3,2.6-3.4,4.7-6,6.4-2.6,1.3-5.2,2.1-8.6,2.1v-.9ZM599.6,76.6c2.6,0,4.7-.4,6.9-1.7,2.2-1.3,3.9-3,4.7-5.1,1.3-2.1,1.7-4.7,1.7-7.3s-.4-5.1-1.7-7.3c-1.3-2.1-2.6-3.9-4.7-4.7-2.2-1.3-4.3-1.7-6.9-1.7s-4.7.4-6.9,1.7c-2.1,1.3-3.4,2.6-4.7,4.7-1.3,2.1-1.7,4.7-1.7,7.3s.4,5.1,1.7,7.3c1.3,2.1,3,3.9,4.7,5.1,2.2,1.3,4.3,1.7,6.9,1.7ZM613,80.4v-18c.4,0,0-7.3,0-7.3v-25.3h4.7v51h-4.7v-.4ZM655.5,52.1h23.2v8.6h-23.2v-8.6ZM656.4,71.9h26.2v9h-37.4v-48.4h36.5v9h-25.4v30.4ZM684.3,80.4l16.8-21.9v6l-15.9-21h12l9.9,13.7h-4.7l10.3-13.7h11.6l-15.9,21v-5.6l16.3,21.9h-12l-10.3-14.6h4.3c0,.4-10.3,14.6-10.3,14.6h-11.6l-.4-.4ZM745.4,81.3c-3.9,0-7.7-.9-10.8-2.6s-5.6-3.9-7.3-6.9c-1.7-3-2.6-6-2.6-9.9s.9-6.9,2.6-9.9c1.7-3,4.3-5.1,7.3-6.9s6.9-2.6,10.8-2.6,7.3.9,10.3,2.6,5.2,3.9,6.4,6.9l-8.2,4.3c-.9-1.7-2.2-3-3.4-3.9-1.3-.9-3-1.3-4.7-1.3s-3.4,0-5.2,1.3c-1.3.9-2.6,2.1-3.4,3.4-.9,1.7-1.3,3.4-1.3,5.6s0,3.9,1.3,5.6c.9,1.7,2.2,2.6,3.4,3.4,1.3.9,3,1.3,5.2,1.3s3.4,0,4.7-1.3c1.3-.9,2.6-2.1,3.4-3.9l8.2,4.7c-1.3,3-3.4,5.1-6.4,6.9s-6.4,2.6-10.3,2.6v.4ZM784.5,81.3c-4.3,0-7.7-.9-11.2-2.6-3-1.7-5.6-3.9-7.3-6.9s-2.6-6-2.6-9.9.9-6.9,2.6-9.9,4.3-5.1,6.9-6.9c3-1.7,6.4-2.6,10.3-2.6s6.9.9,9.9,2.1c3,1.7,5.2,3.9,6.9,6.4,1.7,3,2.6,6.4,2.6,10.3s0,.9,0,1.3v1.3h-30.1v-6.4h24.5l-4.3,1.7c0-1.7,0-3.4-1.3-5.1-.9-1.3-1.7-2.6-3.4-3.4-1.3-.9-3-1.3-4.7-1.3s-3.4,0-4.7,1.3c-1.3.9-2.6,1.7-3.4,3.4-.9,1.3-1.3,3-1.3,5.1v1.7c0,2.1.4,3.9,1.3,5.1.9,1.7,2.2,2.6,3.9,3.4,1.7.9,3.4,1.3,5.6,1.3s3.9,0,5.2-.9c1.7-.4,3-1.3,4.3-2.6l5.6,6c-1.7,1.7-3.9,3.4-6.5,4.3-2.6.9-5.6,1.7-9,1.7l.4,1.7ZM808.2,80.4V29.9h10.7v51h-10.7v-.4ZM827.5,80.4V29.9h10.8v51h-10.8v-.4ZM865.3,81.3c-4.3,0-7.7-.9-11.2-2.6-3-1.7-5.6-3.9-7.3-6.9s-2.6-6-2.6-9.9.9-6.9,2.6-9.9,4.3-5.1,6.9-6.9c3-1.7,6.4-2.6,10.3-2.6s6.9.9,9.9,2.1c3,1.7,5.2,3.9,6.9,6.4,1.7,3,2.6,6.4,2.6,10.3s0,.9,0,1.3v1.3h-30.1v-6.4h24.5l-4.3,1.7c0-1.7,0-3.4-1.3-5.1s-1.7-2.6-3.4-3.4c-1.3-.9-3-1.3-4.7-1.3s-3.4,0-4.7,1.3c-1.3.9-2.6,1.7-3.4,3.4-.9,1.3-1.3,3-1.3,5.1v1.7c0,2.1.4,3.9,1.3,5.1.9,1.7,2.2,2.6,3.9,3.4,1.7.9,3.4,1.3,5.6,1.3s3.9,0,5.2-.9c1.7-.4,3-1.3,4.3-2.6l5.6,6c-1.7,1.7-3.9,3.4-6.4,4.3-2.6.9-5.6,1.7-9,1.7l.4,1.7ZM911.3,43.1c3,0,5.6.4,7.7,1.7,2.1,1.3,4.3,3,5.6,5.1,1.3,2.6,2.2,5.6,2.2,9v21h-10.8v-19.3c0-3-.9-5.1-2.2-6.4-1.3-1.3-3-2.1-5.6-2.1s-3.4,0-4.7,1.3c-1.3.9-2.6,1.7-3,3.4-.9,1.3-1.3,3.4-1.3,5.6v18.4h-10.8v-37.3h10.3v10.3l-1.7-3c1.3-2.6,3.4-4.3,5.6-5.6,2.6-1.3,5.2-2.1,8.6-2.1ZM950.5,81.3c-4.3,0-7.7-1.3-10.3-3.4-2.6-2.1-3.4-5.6-3.4-9.9v-32.6h10.8v32.1c0,1.7,0,2.6,1.3,3.4.9.9,2.1,1.3,3.4,1.3s3-.4,4.3-1.3l3,7.7c-1.3.9-2.6,1.3-3.9,1.7-1.7,0-3,.4-4.7.4l-.4.4ZM930.7,53v-8.1h25.8v8.1h-25.8ZM996.9,80.9c-3.4,0-6.4-.9-9.5-2.1-2.6-1.7-4.7-3.9-6.4-6.4-1.7-3-2.6-6-2.6-9.4s.9-6.9,2.6-9.4c1.7-2.6,3.9-4.7,6.4-6.4,2.6-1.7,6-2.1,9.5-2.1s6.9.9,9.5,2.1c3,1.7,5.2,3.9,6.4,6.4,1.7,2.6,2.6,6,2.6,9.4s-.9,6.9-2.6,9.4-3.9,4.7-6.4,6.4c-3,1.7-6,2.1-9.5,2.1ZM996.9,76.6c2.6,0,4.7-.4,6.9-1.7,2.1-1.3,3.4-3,4.7-5.1,1.3-2.1,1.7-4.7,1.7-7.3s-.4-5.1-1.7-7.3c-1.3-2.1-2.6-3.9-4.7-4.7-2.2-1.3-4.3-1.7-6.9-1.7s-4.7.4-6.9,1.7-3.4,2.6-4.7,4.7c-1.3,2.1-1.7,4.7-1.7,7.3s.4,5.1,1.7,7.3c1.3,2.1,3,3.9,4.7,5.1,2.2,1.3,4.3,1.7,6.9,1.7ZM1042.5,44.4c3,0,5.6.4,7.7,1.7,2.1,1.3,3.9,3,5.2,5.1,1.3,2.1,1.7,5.1,1.7,8.6v21h-4.7v-20.6c0-3.9-.9-6.9-3-8.6-1.7-2.1-4.7-3-8.2-3s-4.7.4-6.9,1.7c-1.7.9-3.4,2.6-4.3,4.3s-1.7,4.3-1.7,6.9v18.9h-4.7v-36h4.7v9.9l-.9-1.7c1.3-2.6,3-4.7,5.6-6,2.6-1.7,5.6-2.1,9-2.1h.4Z"></path>
    <path class="st2" d="M1182.2,44.4h35.3v6.9h-13.3v36.4h-8.2v-36.4h-13.3v-6.9h-.4ZM1215.7,56h6.9v6c0-.9.9-1.3,1.3-2.6.9-1.3,1.3-1.3,2.2-2.1.9-.9,2.1-1.3,2.6-1.3.9-.9,2.2-.9,3.4-.9h2.2v6.9h-2.6c-1.3,0-2.2,0-3.4.9-1.3.9-2.1,1.3-2.6,2.1-.9.9-1.3,2.1-2.2,3.4s-.9,2.6-.9,4.7v15h-6.9v-32.1ZM1265.6,87.7h-6.9v-3.9c-.9,1.3-2.2,2.6-3.9,3.9-1.3.9-3.4,1.3-5.6,1.3-3.9,0-6.9-.9-8.6-3.4-2.2-2.6-2.6-5.6-2.6-9.4v-19.7h6.9v18.9c0,2.6.9,4.7,1.3,6,1.3,1.3,2.6,2.1,4.7,2.1s2.6,0,3.4-.9c.9-.9,2.1-1.3,2.1-2.1.9-.9,1.3-1.3,1.3-2.6s.9-2.1.9-3.4v-18.4h6.9v30.9h.9l-.9.9ZM1277.2,77.4c0,2.1.9,3.4,2.1,3.9,1.3.9,2.6,1.3,4.7,1.3h2.2c.9,0,1.3,0,2.2-.9.9,0,1.3-.9,2.2-1.3.9-.9.9-1.3.9-2.1s-.9-1.3-.9-2.1c-.9-.9-1.3-.9-2.2-1.3-.9,0-2.2-.9-3.4-.9s-2.6-.9-3.4-.9c-1.3,0-2.6-.9-3.4-1.3-.9-.9-2.2-.9-3.4-1.3-.9-.9-2.1-1.3-2.1-2.6-.9-1.3-.9-2.6-.9-3.9,0-2.1.9-3.4,1.3-3.9.9-.9,2.2-2.1,3.4-2.6,1.3-.4,2.6-1.3,3.9-1.3s3.4-.9,4.7-.9,3.4,0,4.7.9c1.3,0,2.6.9,3.9,1.3,1.3.9,2.1,2.1,2.6,2.6.9,1.3,1.3,2.6,1.3,4.7h-7.3c0-1.3-1.3-2.6-2.2-3.4-2.1-.9-3.4-1.3-4.7-1.3h-2.1c-.9,0-1.3,0-2.2.9-.9,0-1.3.9-1.3.9-.6.6-.9,1-.9,1.3,0,.9,0,1.3.9,2.1.9.9,1.3.9,2.2,1.3.9,0,2.2.9,3.4.9s2.6.9,3.9.9,2.6.9,3.4,1.3c1.3.9,2.1.9,3.4,1.3,1.3.9,2.2,1.3,2.2,2.6.9,1.3.9,2.1.9,3.9s-.9,3.4-1.3,4.7c-.9,1.3-2.1,2.1-3.4,3.4-.9,1.3-2.2,2.1-3.4,2.1s-3.4.9-4.7.9c-2.1,0-3.9,0-5.6-.9-1.3-.9-3.4-1.3-3.9-2.1-1.3-.9-2.1-2.1-2.6-3.4-1.3-1.3-2.2-2.6-2.2-4.7h7.3ZM1300,56h5.6v-8.6h6.9v9.4h6v5.6h-6v18.9c0,.6.3,1,.9,1.3l.9.9h4.7v4.7h-3.9c-2.2,0-3.4,0-3.9-.9-1.3,0-2.2-.9-2.6-1.3-.9-.9-1.3-1.3-1.3-2.6s-.9-2.1-.9-3.4v-18.4h-5.6v-5.6h-.9ZM1323.2,56h6.9v4.7c.9-2.1,2.2-3.4,3.9-3.9,2.2-.9,3.4-1.3,5.6-1.3s4.7.9,6.9,1.3c2.2.9,3.4,2.1,4.7,3.4s2.2,3.4,2.6,5.6c.9,2.1.9,3.9.9,6.9s0,3.9-.9,6c-.9,2.1-1.3,3.4-2.6,5.6-1.3,1.3-2.6,2.6-3.9,3.4-2.2.9-3.4,1.3-6,1.3h-2.6c-.9,0-2.2-.9-2.6-.9-.9-.9-2.2-.9-2.6-1.3l-2.1-2.1v15.4h-6.9v-43.7h-.9l-.4-.4ZM1347.7,72.3c0-1.3,0-2.6-.9-3.9s-.9-2.6-1.3-3.4c-.9-.9-1.3-2.1-2.6-2.6-1.3-.9-2.1-.9-3.9-.9s-5.6.9-6.9,2.6c-1.3,2.1-2.2,4.7-2.2,8.1s0,3.4.9,3.9c.9,1.3.9,2.6,2.2,3.4.9.9,1.3,2.1,2.6,2.1,1.3.9,2.2.9,3.4.9s2.6,0,3.9-.9c1.3-.9,2.2-1.3,2.6-2.6.9-1.3,1.3-2.1,1.3-3.4s.9-2.1.9-3.4ZM1359.8,44.4h6.9v6.9h-6.9v-6.9ZM1359.8,56h6.9v31.7h-6.9v-31.7ZM1372.7,44.4h6.9v43.3h-6.9v-43.3ZM1400.6,88.6c-2.6,0-4.7-.9-6.9-1.3-2.2-.9-3.4-2.1-4.7-3.4-1.3-1.3-2.6-3.4-3.4-5.6-.9-2.1-1.3-3.9-1.3-6.9s.9-4.7,1.3-6.9c.9-2.1,2.1-3.9,3.4-5.6,1.3-1.3,2.6-2.6,4.7-3.4,2.2-.9,3.9-1.3,6.9-1.3s4.7.9,6.9,1.3c2.1.9,3.4,2.1,4.7,3.4,1.3,1.3,2.6,3.4,3.4,5.6.9,2.1,1.3,3.9,1.3,6.9s-.9,4.7-1.3,6.9c-.9,2.1-2.2,3.9-3.4,5.6-1.3,1.3-2.6,2.6-4.7,3.4-2.2.9-3.9,1.3-6.9,1.3ZM1400.6,83c1.3,0,2.6,0,3.9-.9,1.3-.9,2.2-1.3,2.6-2.6.9-1.3,1.3-2.1,1.3-3.4s.9-2.6.9-3.9,0-2.6-.9-3.9c0-1.3-.9-2.6-1.3-3.4-.9-.9-1.3-2.1-2.6-2.6-1.3-.9-2.6-.9-3.9-.9s-2.6,0-3.9.9c-1.3.9-2.2,1.3-2.6,2.6-.9,1.3-1.3,2.1-1.3,3.4s-.9,2.6-.9,3.9,0,2.6.9,3.9c0,1.3.9,2.6,1.3,3.4.9,1.3,1.3,2.1,2.6,2.6,1.3,0,2.6.9,3.9.9ZM1418.7,56h5.6v-8.6h6.9v9.4h6v5.6h-6v18.9c0,.6.3,1,.9,1.3l.9.9h4.7v4.7h-3.9c-2.2,0-3.4,0-3.9-.9-1.3,0-2.2-.9-2.6-1.3-.9-.9-1.3-1.3-1.3-2.6s-.9-2.1-.9-3.4v-18.4h-5.6v-5.6h-.9Z"></path>
    <g class="st4">
      <path class="st5" d="M1174.5,44.4h-31.8l-9.5-30.4-10.3,30.4h-31l24.9,18.4-9.5,30.4,25.8-18.9,24.9,18.9-9.5-30.4,25.8-18.4Z"></path>
    </g>
    <path class="st3" d="M1150.4,69.7l-2.1-6.9-15.5,11.6,17.6-4.7Z"></path>
  </g>
</svg>
