<svg xmlns="http://www.w3.org/2000/svg" id="Layer_1" version="1.1" viewBox="33.8 14 1403.9 86.1"><defs><clipPath id="clippath"><path d="M1090.7 14h84v79.3h-84z" style="fill:none"/></clipPath><style>.st5{fill:#00b67a}</style></defs><g id="_x39_fd4979a29"><path d="M102.6 22.6H33.8v68.6h68.8zm74 0h-68.8v68.6h68.8zm74.4 0h-68.8v68.6H251zm73.9 0h-68.8v68.6h68.8z" class="st5"/><path d="M399.3 22.6h-68.8v68.6h68.8z" style="fill:#d2dcea"/><path d="M330.5 22.6h34.4v67.7h-34.4z" class="st5"/><path d="m67.8 68.4 10.8-3 4.3 13.7-15-10.7Zm24.1-17.1H73.4l-5.6-17.1-5.6 17.1H44.1l15 10.7-5.6 17.1 15-10.7L78 62l14.2-10.7h-.4Zm50.3 17.1 10.7-3 4.3 13.7zm23.6-17.1h-18.5l-5.6-17.1-5.6 17.1h-18.5L132.7 62l-5.6 17.1 15.1-10.7 9.5-6.4 15-10.7zm50.8 17.1 10.8-3 4.3 13.7-15-10.7Zm23.6-17.1h-18.5l-5.6-17.1-5.6 17.1H192L207 62l-5.2 17.1 15-10.7 9.5-6.4 14.2-10.7h-.4Zm50.3 17.1 10.8-3 4.3 13.7zM315 51.3h-18.5l-5.6-17.1-5.6 17.1h-18.5l15 10.7-5.6 17.1 15.1-10.7 9.5-6.4 15-10.7h-.9Zm49.9 17.1 10.8-3 4.3 13.7-15-10.7Zm23.6-17.1H370l-5.6-17.1-5.2 17.1h-18.5L355.8 62l-5.6 17.1 15-10.7 9.5-6.4 14.2-10.7zm44.8 29.1v-48h18.1c3.9 0 7.7.9 10.3 2.1 3 1.3 5.2 3 6.9 5.6s2.6 5.6 2.6 9-.9 6.4-2.6 8.6c-1.7 2.6-3.9 4.3-6.9 5.6s-6.4 1.7-10.3 1.7h-15l2.2-2.1v17.6h-5.2Zm32.6 0-12.5-17.6h5.6l12.5 17.6zm-27.5-17.1-2.2-2.6h15c4.7 0 8.6-.9 10.8-3q3.9-3.15 3.9-9c0-5.85-1.3-6.9-3.9-9s-6-3-10.8-3h-15l2.2-2.6v29.1Zm64.5 17.1V57.7c0-3-.9-5.6-2.6-6.9-1.7-1.7-4.3-2.6-7.7-2.6s-4.7 0-6.9 1.3c-2.2.9-3.9 1.7-5.2 3l-2.1-3.4c1.7-1.7 3.9-2.6 6.4-3.4 2.6-.9 5.2-1.3 8.2-1.3 4.7 0 8.2 1.3 10.8 3.4s3.9 5.6 3.9 10.3v22.3H503Zm-12.5.5c-2.6 0-5.2-.4-6.9-1.3-2.2-.9-3.4-2.1-4.7-3.9-.9-1.7-1.7-3.4-1.7-5.6s.4-3.4 1.3-5.1 2.6-3 4.3-3.9c2.2-.9 4.7-1.3 8.2-1.3h12.5v3.4h-12.5c-3.4 0-6 .4-7.3 1.7s-2.2 2.6-2.2 4.7.9 3.9 2.6 5.1c1.7 1.3 3.9 1.7 6.9 1.7s5.2-.4 6.9-1.7c2.2-1.3 3.4-3 4.3-5.6l1.3 3.4c-.9 2.6-2.6 4.3-4.7 5.6s-5.2 2.1-8.6 2.1l.4.4Zm40.4 0c-3.4 0-6-.9-7.7-2.6s-2.6-4.3-2.6-7.7V36.7h4.7v33.4c0 2.1.4 3.9 1.7 4.7 1.3 1.3 2.6 1.7 4.7 1.7s3.9-.4 5.2-1.7l1.7 3.4c-.9.9-2.1 1.7-3.4 1.7s-2.6.4-4.3.4v.4Zm-17.1-32.2v-3.9h22.4v3.9zm46.4 32.2c-3.9 0-6.9-.9-9.9-2.1-3-1.7-5.2-3.9-6.9-6.4-1.7-3-2.6-6-2.6-9.4s.9-6.9 2.2-9.4c1.7-2.6 3.9-4.7 6.4-6.4s5.6-2.6 9-2.6 6.5.9 9 2.1c2.6 1.7 4.7 3.9 6.4 6.4s2.2 6 2.2 9.4v1.8h-31.4v-3.4h28.8l-1.7 1.3c0-2.6-.4-4.7-1.7-6.9-1.3-2.1-2.6-3.9-4.7-4.7-1.7-1.3-4.3-1.7-6.9-1.7s-4.7.4-6.9 1.7-3.4 2.6-4.7 4.7-1.7 4.3-1.7 6.9v.9c0 2.6.4 5.1 1.7 7.3 1.3 2.1 3 3.9 5.2 4.7 2.2 1.3 4.7 1.7 7.3 1.7s4.3 0 6-1.3c1.7-.9 3.4-2.1 5.2-3.4l2.6 3c-1.7 1.7-3.4 3.4-6 4.3s-5.2 1.7-7.7 1.7h.9Zm39.1 0c-3.4 0-6.4-.9-9.5-2.1-2.6-1.7-4.7-3.9-6.4-6.4-1.7-3-2.2-6-2.2-9.4s.9-6.9 2.2-9.4c1.7-2.6 3.9-4.7 6.4-6.4 2.6-1.7 6-2.1 9.5-2.1s6 .9 8.6 2.1c2.6 1.3 4.3 3.4 6 6.4 1.7 2.6 2.2 6 2.2 9.9s-.9 7.3-2.2 9.9-3.4 4.7-6 6.4c-2.6 1.3-5.2 2.1-8.6 2.1V81Zm.4-4.3c2.6 0 4.7-.4 6.9-1.7s3.9-3 4.7-5.1c1.3-2.1 1.7-4.7 1.7-7.3s-.4-5.1-1.7-7.3c-1.3-2.1-2.6-3.9-4.7-4.7-2.2-1.3-4.3-1.7-6.9-1.7s-4.7.4-6.9 1.7c-2.1 1.3-3.4 2.6-4.7 4.7s-1.7 4.7-1.7 7.3.4 5.1 1.7 7.3c1.3 2.1 3 3.9 4.7 5.1 2.2 1.3 4.3 1.7 6.9 1.7m13.4 3.8v-18c.4 0 0-7.3 0-7.3V29.8h4.7v51H613zm42.5-28.3h23.2v8.6h-23.2zm.9 19.8h26.2v9h-37.4V32.5h36.5v9h-25.4v30.4Zm27.9 8.5 16.8-21.9v6l-15.9-21h12l9.9 13.7h-4.7l10.3-13.7h11.6l-15.9 21v-5.6l16.3 21.9h-12l-10.3-14.6h4.3c0 .4-10.3 14.6-10.3 14.6h-11.6l-.4-.4Zm61.1.9c-3.9 0-7.7-.9-10.8-2.6s-5.6-3.9-7.3-6.9-2.6-6-2.6-9.9.9-6.9 2.6-9.9 4.3-5.1 7.3-6.9 6.9-2.6 10.8-2.6 7.3.9 10.3 2.6 5.2 3.9 6.4 6.9l-8.2 4.3c-.9-1.7-2.2-3-3.4-3.9-1.3-.9-3-1.3-4.7-1.3s-3.4 0-5.2 1.3c-1.3.9-2.6 2.1-3.4 3.4-.9 1.7-1.3 3.4-1.3 5.6s0 3.9 1.3 5.6c.9 1.7 2.2 2.6 3.4 3.4 1.3.9 3 1.3 5.2 1.3s3.4 0 4.7-1.3c1.3-.9 2.6-2.1 3.4-3.9l8.2 4.7c-1.3 3-3.4 5.1-6.4 6.9s-6.4 2.6-10.3 2.6v.4Zm39.1 0c-4.3 0-7.7-.9-11.2-2.6-3-1.7-5.6-3.9-7.3-6.9s-2.6-6-2.6-9.9.9-6.9 2.6-9.9 4.3-5.1 6.9-6.9c3-1.7 6.4-2.6 10.3-2.6s6.9.9 9.9 2.1c3 1.7 5.2 3.9 6.9 6.4 1.7 3 2.6 6.4 2.6 10.3v2.6h-30.1v-6.4H797l-4.3 1.7c0-1.7 0-3.4-1.3-5.1-.9-1.3-1.7-2.6-3.4-3.4-1.3-.9-3-1.3-4.7-1.3s-3.4 0-4.7 1.3c-1.3.9-2.6 1.7-3.4 3.4-.9 1.3-1.3 3-1.3 5.1v1.7c0 2.1.4 3.9 1.3 5.1.9 1.7 2.2 2.6 3.9 3.4 1.7.9 3.4 1.3 5.6 1.3s3.9 0 5.2-.9c1.7-.4 3-1.3 4.3-2.6l5.6 6c-1.7 1.7-3.9 3.4-6.5 4.3s-5.6 1.7-9 1.7l.4 1.7Zm23.7-.9V29.9h10.7v51h-10.7v-.4Zm19.3 0V29.9h10.8v51h-10.8v-.4Zm37.8.9c-4.3 0-7.7-.9-11.2-2.6-3-1.7-5.6-3.9-7.3-6.9s-2.6-6-2.6-9.9.9-6.9 2.6-9.9 4.3-5.1 6.9-6.9c3-1.7 6.4-2.6 10.3-2.6s6.9.9 9.9 2.1c3 1.7 5.2 3.9 6.9 6.4 1.7 3 2.6 6.4 2.6 10.3v2.6h-30.1v-6.4h24.5l-4.3 1.7c0-1.7 0-3.4-1.3-5.1s-1.7-2.6-3.4-3.4c-1.3-.9-3-1.3-4.7-1.3s-3.4 0-4.7 1.3c-1.3.9-2.6 1.7-3.4 3.4-.9 1.3-1.3 3-1.3 5.1v1.7c0 2.1.4 3.9 1.3 5.1.9 1.7 2.2 2.6 3.9 3.4 1.7.9 3.4 1.3 5.6 1.3s3.9 0 5.2-.9c1.7-.4 3-1.3 4.3-2.6l5.6 6c-1.7 1.7-3.9 3.4-6.4 4.3-2.6.9-5.6 1.7-9 1.7l.4 1.7Zm46-38.2c3 0 5.6.4 7.7 1.7s4.3 3 5.6 5.1c1.3 2.6 2.2 5.6 2.2 9v21H916V60.6c0-3-.9-5.1-2.2-6.4s-3-2.1-5.6-2.1-3.4 0-4.7 1.3c-1.3.9-2.6 1.7-3 3.4-.9 1.3-1.3 3.4-1.3 5.6v18.4h-10.8V43.5h10.3v10.3l-1.7-3c1.3-2.6 3.4-4.3 5.6-5.6 2.6-1.3 5.2-2.1 8.6-2.1Zm39.2 38.2c-4.3 0-7.7-1.3-10.3-3.4s-3.4-5.6-3.4-9.9V35.4h10.8v32.1c0 1.7 0 2.6 1.3 3.4.9.9 2.1 1.3 3.4 1.3s3-.4 4.3-1.3l3 7.7c-1.3.9-2.6 1.3-3.9 1.7-1.7 0-3 .4-4.7.4l-.4.4ZM930.7 53v-8.1h25.8V53zm66.2 27.9c-3.4 0-6.4-.9-9.5-2.1-2.6-1.7-4.7-3.9-6.4-6.4-1.7-3-2.6-6-2.6-9.4s.9-6.9 2.6-9.4c1.7-2.6 3.9-4.7 6.4-6.4 2.6-1.7 6-2.1 9.5-2.1s6.9.9 9.5 2.1c3 1.7 5.2 3.9 6.4 6.4 1.7 2.6 2.6 6 2.6 9.4s-.9 6.9-2.6 9.4-3.9 4.7-6.4 6.4c-3 1.7-6 2.1-9.5 2.1m0-4.3c2.6 0 4.7-.4 6.9-1.7 2.1-1.3 3.4-3 4.7-5.1s1.7-4.7 1.7-7.3-.4-5.1-1.7-7.3c-1.3-2.1-2.6-3.9-4.7-4.7-2.2-1.3-4.3-1.7-6.9-1.7s-4.7.4-6.9 1.7-3.4 2.6-4.7 4.7-1.7 4.7-1.7 7.3.4 5.1 1.7 7.3c1.3 2.1 3 3.9 4.7 5.1 2.2 1.3 4.3 1.7 6.9 1.7m45.6-32.2c3 0 5.6.4 7.7 1.7s3.9 3 5.2 5.1 1.7 5.1 1.7 8.6v21h-4.7V60.2c0-3.9-.9-6.9-3-8.6-1.7-2.1-4.7-3-8.2-3s-4.7.4-6.9 1.7c-1.7.9-3.4 2.6-4.3 4.3s-1.7 4.3-1.7 6.9v18.9h-4.7v-36h4.7v9.9l-.9-1.7c1.3-2.6 3-4.7 5.6-6 2.6-1.7 5.6-2.1 9-2.1h.4Zm139.7 0h35.3v6.9h-13.3v36.4h-8.2V51.3h-13.3v-6.9h-.4Zm33.5 11.6h6.9v6c0-.9.9-1.3 1.3-2.6.9-1.3 1.3-1.3 2.2-2.1.9-.9 2.1-1.3 2.6-1.3.9-.9 2.2-.9 3.4-.9h2.2V62h-2.6c-1.3 0-2.2 0-3.4.9-1.3.9-2.1 1.3-2.6 2.1-.9.9-1.3 2.1-2.2 3.4s-.9 2.6-.9 4.7v15h-6.9zm49.9 31.7h-6.9v-3.9q-1.35 1.95-3.9 3.9c-1.3.9-3.4 1.3-5.6 1.3-3.9 0-6.9-.9-8.6-3.4-2.2-2.6-2.6-5.6-2.6-9.4V56.5h6.9v18.9c0 2.6.9 4.7 1.3 6 1.3 1.3 2.6 2.1 4.7 2.1s2.6 0 3.4-.9c.9-.9 2.1-1.3 2.1-2.1.9-.9 1.3-1.3 1.3-2.6s.9-2.1.9-3.4V56.1h6.9V87h.9l-.9.9Zm11.6-10.3c0 2.1.9 3.4 2.1 3.9 1.3.9 2.6 1.3 4.7 1.3h2.2c.9 0 1.3 0 2.2-.9.9 0 1.3-.9 2.2-1.3.9-.9.9-1.3.9-2.1s-.9-1.3-.9-2.1c-.9-.9-1.3-.9-2.2-1.3-.9 0-2.2-.9-3.4-.9s-2.6-.9-3.4-.9c-1.3 0-2.6-.9-3.4-1.3-.9-.9-2.2-.9-3.4-1.3-.9-.9-2.1-1.3-2.1-2.6-.9-1.3-.9-2.6-.9-3.9 0-2.1.9-3.4 1.3-3.9.9-.9 2.2-2.1 3.4-2.6 1.3-.4 2.6-1.3 3.9-1.3s3.4-.9 4.7-.9 3.4 0 4.7.9c1.3 0 2.6.9 3.9 1.3 1.3.9 2.1 2.1 2.6 2.6.9 1.3 1.3 2.6 1.3 4.7h-7.3c0-1.3-1.3-2.6-2.2-3.4-2.1-.9-3.4-1.3-4.7-1.3h-2.1c-.9 0-1.3 0-2.2.9-.9 0-1.3.9-1.3.9-.6.6-.9 1-.9 1.3 0 .9 0 1.3.9 2.1.9.9 1.3.9 2.2 1.3.9 0 2.2.9 3.4.9s2.6.9 3.9.9 2.6.9 3.4 1.3c1.3.9 2.1.9 3.4 1.3 1.3.9 2.2 1.3 2.2 2.6.9 1.3.9 2.1.9 3.9s-.9 3.4-1.3 4.7c-.9 1.3-2.1 2.1-3.4 3.4-.9 1.3-2.2 2.1-3.4 2.1s-3.4.9-4.7.9c-2.1 0-3.9 0-5.6-.9-1.3-.9-3.4-1.3-3.9-2.1-1.3-.9-2.1-2.1-2.6-3.4-1.3-1.3-2.2-2.6-2.2-4.7h7.3ZM1300 56h5.6v-8.6h6.9v9.4h6v5.6h-6v18.9c0 .6.3 1 .9 1.3l.9.9h4.7v4.7h-3.9c-2.2 0-3.4 0-3.9-.9-1.3 0-2.2-.9-2.6-1.3-.9-.9-1.3-1.3-1.3-2.6s-.9-2.1-.9-3.4V61.6h-5.6V56h-.9Zm23.2 0h6.9v4.7q1.35-3.15 3.9-3.9c2.2-.9 3.4-1.3 5.6-1.3s4.7.9 6.9 1.3c2.2.9 3.4 2.1 4.7 3.4s2.2 3.4 2.6 5.6c.9 2.1.9 3.9.9 6.9s0 3.9-.9 6-1.3 3.4-2.6 5.6c-1.3 1.3-2.6 2.6-3.9 3.4-2.2.9-3.4 1.3-6 1.3h-2.6c-.9 0-2.2-.9-2.6-.9-.9-.9-2.2-.9-2.6-1.3l-2.1-2.1v15.4h-6.9V56.4h-.9zm24.5 16.3c0-1.3 0-2.6-.9-3.9s-.9-2.6-1.3-3.4c-.9-.9-1.3-2.1-2.6-2.6-1.3-.9-2.1-.9-3.9-.9s-5.6.9-6.9 2.6c-1.3 2.1-2.2 4.7-2.2 8.1s0 3.4.9 3.9c.9 1.3.9 2.6 2.2 3.4.9.9 1.3 2.1 2.6 2.1 1.3.9 2.2.9 3.4.9s2.6 0 3.9-.9 2.2-1.3 2.6-2.6c.9-1.3 1.3-2.1 1.3-3.4s.9-2.1.9-3.4Zm12.1-27.9h6.9v6.9h-6.9zm0 11.6h6.9v31.7h-6.9zm12.9-11.6h6.9v43.3h-6.9zm27.9 44.2c-2.6 0-4.7-.9-6.9-1.3-2.2-.9-3.4-2.1-4.7-3.4s-2.6-3.4-3.4-5.6c-.9-2.1-1.3-3.9-1.3-6.9s.9-4.7 1.3-6.9c.9-2.1 2.1-3.9 3.4-5.6 1.3-1.3 2.6-2.6 4.7-3.4 2.2-.9 3.9-1.3 6.9-1.3s4.7.9 6.9 1.3c2.1.9 3.4 2.1 4.7 3.4s2.6 3.4 3.4 5.6c.9 2.1 1.3 3.9 1.3 6.9s-.9 4.7-1.3 6.9c-.9 2.1-2.2 3.9-3.4 5.6-1.3 1.3-2.6 2.6-4.7 3.4-2.2.9-3.9 1.3-6.9 1.3m0-5.6c1.3 0 2.6 0 3.9-.9s2.2-1.3 2.6-2.6c.9-1.3 1.3-2.1 1.3-3.4s.9-2.6.9-3.9 0-2.6-.9-3.9c0-1.3-.9-2.6-1.3-3.4-.9-.9-1.3-2.1-2.6-2.6-1.3-.9-2.6-.9-3.9-.9s-2.6 0-3.9.9-2.2 1.3-2.6 2.6c-.9 1.3-1.3 2.1-1.3 3.4s-.9 2.6-.9 3.9 0 2.6.9 3.9c0 1.3.9 2.6 1.3 3.4.9 1.3 1.3 2.1 2.6 2.6 1.3 0 2.6.9 3.9.9m18.1-27h5.6v-8.6h6.9v9.4h6v5.6h-6v18.9c0 .6.3 1 .9 1.3l.9.9h4.7v4.7h-3.9c-2.2 0-3.4 0-3.9-.9-1.3 0-2.2-.9-2.6-1.3-.9-.9-1.3-1.3-1.3-2.6s-.9-2.1-.9-3.4V61.6h-5.6V56h-.9Z" style="fill:#fff"/><path d="M1174.5 44.4h-31.8l-9.5-30.4-10.3 30.4h-31l24.9 18.4-9.5 30.4 25.8-18.9 24.9 18.9-9.5-30.4 25.8-18.4Z" class="st5" style="clip-path:url(#clippath)"/><path d="m1150.4 69.7-2.1-6.9-15.5 11.6z" style="fill:#005128"/></g></svg>